#!OML:ASF I:\Actors\actors\Patient Classification 2\Patient 1\Session 1\actor1.ASF
:FULLY-SPECIFIED
:DEGREES
680
root -0.349726 18.8361 4.91784 9.55328 -9.90677 1.48492
lowerback 18.9614 -3.70673 -3.88212
upperback 2.69552 -5.45316 2.53193
thorax -7.03834 -2.52101 6.26339
lowerneck -21.1123 5.59933 1.93185
upperneck 2.70743 7.93576 -11.2592
head 4.74482 3.15258 -3.05358
rclavicle -2.25124e-014 3.18055e-015
rhumerus -59.9877 -15.5158 -61.3266
rradius 53.0958
rwrist 3.6528
rhand -8.92093 -42.5306
rfingers 7.12502
rthumb 17.0225 -71.8048
lclavicle -2.25124e-014 3.18055e-015
lhumerus 23.3875 -13.4587 67.0729
lradius 31.8525
lwrist -23.4989
lhand 0.532437 -15.4366
lfingers 7.12502
lthumb 26.1003 12.7899
rfemur 0 0 0
rtibia 0
rfoot 0 0
rtoes 0
lfemur -16.1707 3.39533 -16.9686
ltibia 23.4901
lfoot -19.127 13.7444
ltoes -54.8373
681
root -0.357747 18.8338 4.928 9.42336 -9.95661 1.49294
lowerback 18.6234 -3.66236 -3.95111
upperback 2.59553 -5.41108 2.41214
thorax -6.97594 -2.50146 6.13708
lowerneck -21.3384 5.58127 1.96237
upperneck 2.63391 7.87166 -11.0204
head 4.73886 3.13286 -2.98834
rclavicle -4.27387e-015 5.1684e-015
rhumerus -59.4759 -15.5002 -61.8532
rradius 53.2594
rwrist 3.6978
rhand -8.94392 -42.3102
rfingers 7.12502
rthumb 17.0004 -71.5863
lclavicle -4.27387e-015 5.1684e-015
lhumerus 22.0753 -12.6735 68.3964
lradius 31.291
lwrist -24.5634
lhand -0.0556199 -16.2866
lfingers 7.12502
lthumb 25.5371 12.0218
rfemur 0 0 0
rtibia 0
rfoot 0 0
rtoes 0
lfemur -15.9196 3.3955 -16.9512
ltibia 23.375
lfoot -19.1467 13.7828
ltoes -54.8649
682
root -0.365815 18.8314 4.94049 9.25928 -9.99353 1.46583
lowerback 18.2301 -3.60068 -3.96263
upperback 2.58051 -5.33162 2.29261
thorax -6.80073 -2.47203 5.96053
lowerneck -21.8128 5.52616 1.93425
upperneck 2.69968 7.78116 -10.7202
head 4.80675 3.0903 -2.89327
rclavicle -7.49418e-014 1.74931e-014
rhumerus -58.8551 -15.5578 -62.3986
rradius 53.3841
rwrist 3.64161
rhand -9.0199 -42.0815
rfingers 7.12502
rthumb 16.9273 -71.3639
lclavicle -7.49418e-014 1.74931e-014
lhumerus 20.8555 -11.9563 69.5697
lradius 30.8861
lwrist -25.4023
lhand -0.681392 -16.7018
lfingers 7.12502
lthumb 24.9376 11.6911
rfemur 0 0 0
rtibia 0
rfoot 0 0
rtoes 0
lfemur -15.6395 3.39433 -16.8966
ltibia 23.3086
lfoot -19.2174 13.8228
ltoes -54.8607
683
root -0.375924 18.8291 4.95416 9.02993 -10.0358 1.40957
lowerback 17.9313 -3.50761 -3.9546
upperback 2.57443 -5.20959 2.16632
thorax -6.67401 -2.42002 5.76622
lowerneck -22.441 5.41718 1.82319
upperneck 2.947 7.63586 -10.1997
head 4.93627 3.0252 -2.71879
rclavicle 2.8948e-014 1.49089e-015
rhumerus -58.263 -15.5781 -62.9575
rradius 53.4971
rwrist 3.544
rhand -9.14719 -41.9545
rfingers 7.12502
rthumb 16.8047 -71.2473
lclavicle 2.8948e-014 1.49089e-015
lhumerus 19.6354 -11.2415 70.7709
lradius 30.5073
lwrist -26.1307
lhand -1.63298 -16.9251
lfingers 7.12502
lthumb 24.0254 11.5912
rfemur 0 0 0
rtibia 0
rfoot 0 0
rtoes 0
lfemur -15.2664 3.31524 -16.7962
ltibia 23.2441
lfoot -19.346 13.9374
ltoes -54.8601
684
root -0.38709 18.8269 4.96627 8.80883 -10.0643 1.37692
lowerback 17.633 -3.41829 -3.97747
upperback 2.50544 -5.09906 2.03496
thorax -6.61099 -2.36872 5.5916
lowerneck -22.7649 5.2566 1.78779
upperneck 3.07809 7.39094 -9.70208
head 4.98291 2.92682 -2.57962
rclavicle -6.99474e-015 -4.5472e-015
rhumerus -57.7885 -15.5047 -63.48
rradius 53.6022
rwrist 3.50619
rhand -9.22208 -41.7237
rfingers 7.12502
rthumb 16.7327 -71.0226
lclavicle -6.99474e-015 -4.5472e-015
lhumerus 18.2533 -10.5489 71.9691
lradius 30.1741
lwrist -26.7575
lhand -2.90421 -17.1929
lfingers 7.12502
lthumb 22.8059 11.4789
rfemur 0 0 0
rtibia 0
rfoot 0 0
rtoes 0
lfemur -14.9063 3.17648 -16.71
ltibia 23.1736
lfoot -19.4913 14.062
ltoes -54.846
685
root -0.398072 18.8251 4.97663 8.63758 -10.0662 1.37457
lowerback 17.2937 -3.3425 -4.00053
upperback 2.40174 -5.00556 1.89427
thorax -6.56108 -2.32451 5.41022
lowerneck -22.9563 5.11049 1.88225
upperneck 3.14175 7.14689 -9.43712
head 5.00666 2.82088 -2.53637
rclavicle 6.44187e-015 -2.47487e-014
rhumerus -57.3352 -15.4907 -63.9361
rradius 53.6534
rwrist 3.58631
rhand -9.17533 -41.4719
rfingers 7.12502
rthumb 16.7777 -70.767
lclavicle 6.44187e-015 -2.47487e-014
lhumerus 16.8626 -9.98253 72.9763
lradius 29.896
lwrist -27.2323
lhand -3.933 -17.4583
lfingers 7.12502
lthumb 21.8183 11.3317
rfemur 0 0 0
rtibia 0
rfoot 0 0
rtoes 0
lfemur -14.6159 2.96625 -16.6552
ltibia 23.0964
lfoot -19.6172 14.2143
ltoes -54.877
686
root -0.409958 18.8232 4.98713 8.44993 -10.0418 1.34021
lowerback 17.034 -3.2884 -4.02272
upperback 2.32365 -4.9389 1.79695
thorax -6.51891 -2.29308 5.28678
lowerneck -23.3879 5.02953 1.91712
upperneck 3.36667 7.02315 -9.21445
head 5.12448 2.75772 -2.47941
rclavicle 4.32978e-015 2.16551e-014
rhumerus -56.7374 -15.4098 -64.4038
rradius 53.6529
rwrist 3.65896
rhand -9.23839 -41.4298
rfingers 7.12502
rthumb 16.717 -70.7301
lclavicle 4.32978e-015 2.16551e-014
lhumerus 15.5123 -9.24796 73.8834
lradius 29.7701
lwrist -27.8678
lhand -4.41748 -17.6128
lfingers 7.12502
lthumb 21.353 11.2307
rfemur 0 0 0
rtibia 0
rfoot 0 0
rtoes 0
lfemur -14.3062 2.74765 -16.5633
ltibia 23.0181
lfoot -19.6963 14.3823
ltoes -54.9932
687
root -0.423474 18.8207 4.99867 8.22877 -9.97797 1.29509
lowerback 16.7986 -3.20443 -4.03868
upperback 2.2127 -4.83009 1.73677
thorax -6.52669 -2.23828 5.19564
lowerneck -23.6782 4.94526 1.98757
upperneck 3.61055 6.90012 -9.11845
head 5.23562 2.69027 -2.46987
rclavicle 8.64247e-014 3.33586e-015
rhumerus -56.3015 -15.2367 -64.77
rradius 53.7099
rwrist 3.63783
rhand -9.43568 -41.4725
rfingers 7.12502
rthumb 16.527 -70.7886
lclavicle 8.64247e-014 3.33586e-015
lhumerus 14.0626 -8.52867 74.8573
lradius 29.8348
lwrist -28.3044
lhand -4.58154 -17.7353
lfingers 7.12502
lthumb 21.1954 11.126
rfemur 0 0 0
rtibia 0
rfoot 0 0
rtoes 0
lfemur -13.9662 2.6409 -16.4523
ltibia 22.944
lfoot -19.7212 14.4333
ltoes -55.0588
688
root -0.437061 18.8183 5.01055 8.02661 -9.90578 1.2554
lowerback 16.5179 -3.10946 -4.02921
upperback 2.20708 -4.70084 1.64718
thorax -6.40277 -2.18163 5.04569
lowerneck -24.328 4.88893 2.13623
upperneck 3.92934 6.79614 -9.04214
head 5.42815 2.61998 -2.4732
rclavicle 2.7892e-015 2.82398e-014
rhumerus -55.7108 -15.2454 -65.1687
rradius 53.7416
rwrist 3.6077
rhand -9.54381 -41.408
rfingers 7.12502
rthumb 16.4229 -70.7328
lclavicle 2.7892e-015 2.82398e-014
lhumerus 12.9273 -7.93292 75.625
lradius 29.8455
lwrist -28.0014
lhand -4.59956 -18.0707
lfingers 7.12502
lthumb 21.1781 10.7925
rfemur 0 0 0
rtibia 0
rfoot 0 0
rtoes 0
lfemur -13.652 2.5701 -16.3432
ltibia 22.8772
lfoot -19.7849 14.4014
ltoes -54.9897
689
root -0.448884 18.8158 5.02152 7.84981 -9.87066 1.22397
lowerback 16.2184 -3.0006 -4.00875
upperback 2.16849 -4.55134 1.55257
thorax -6.30676 -2.11352 4.88169
lowerneck -24.6195 4.83752 1.98186
upperneck 3.99063 6.73249 -8.66086
head 5.46284 2.60703 -2.33137
rclavicle -5.42931e-014 -1.0958e-014
rhumerus -55.1879 -15.2476 -65.5156
rradius 53.7561
rwrist 3.51014
rhand -9.67798 -41.2189
rfingers 7.12502
rthumb 16.2937 -70.5543
lclavicle -5.42931e-014 -1.0958e-014
lhumerus 11.8962 -7.61661 76.2249
lradius 29.7172
lwrist -27.4745
lhand -4.65178 -18.3334
lfingers 7.12502
lthumb 21.128 10.5354
rfemur 0 0 0
rtibia 0
rfoot 0 0
rtoes 0
lfemur -13.3658 2.44815 -16.2543
ltibia 22.8171
lfoot -19.9013 14.4227
ltoes -54.8952
690
root -0.460854 18.8131 5.03223 7.67698 -9.86854 1.19479
lowerback 15.9255 -2.87216 -4.01498
upperback 2.10085 -4.38102 1.45905
thorax -6.24461 -2.03266 4.73318
lowerneck -24.4502 4.84388 1.69455
upperneck 3.71938 6.73738 -8.0644
head 5.31233 2.66509 -2.09835
rclavicle -3.50358e-014 3.15571e-014
rhumerus -54.7541 -15.1598 -65.8658
rradius 53.8135
rwrist 3.40314
rhand -9.80441 -41.0643
rfingers 7.12502
rthumb 16.172 -70.4097
lclavicle -3.50358e-014 3.15571e-014
lhumerus 10.9169 -7.49259 76.6939
lradius 29.522
lwrist -27.2493
lhand -4.83882 -18.5461
lfingers 7.12502
lthumb 20.9483 10.3427
rfemur 0 0 0
rtibia 0
rfoot 0 0
rtoes 0
lfemur -13.0845 2.33899 -16.1798
ltibia 22.7636
lfoot -19.9591 14.5165
ltoes -54.9202
